<svg xmlns="http://www.w3.org/2000/svg"
    xmlns:xlink="http://www.w3.org/1999/xlink" version="1.1" x="0px" y="0px" viewBox="0 0 100 100" enable-background="new 0 0 100 100" xml:space="preserve">
    <g>
        <g>
            <path d="M76.188,50.229c-0.127,0-0.257-0.024-0.381-0.076c-2.934-1.209-3.747-4.246-3.97-5.949    C69.873,29.317,60.689,18.511,50,18.511c-5.942,0-11.533,3.301-15.741,9.296c-0.316,0.451-0.941,0.561-1.393,0.244    c-0.452-0.317-0.561-0.941-0.244-1.393C37.216,20.114,43.387,16.511,50,16.511c11.706,0,21.724,11.537,23.819,27.433    c0.167,1.275,0.747,3.536,2.749,4.361c0.511,0.21,0.754,0.795,0.544,1.306C76.953,49.996,76.58,50.229,76.188,50.229z"/>
        </g>
        <g>
            <path d="M21.688,51.511c-0.552,0-1-0.447-1-1c0-0.552,0.448-1,1-1c3.621,0,4.146-2.237,4.423-4.939    c0.023-0.229,0.045-0.44,0.07-0.628c0.481-3.65,1.393-7.143,2.711-10.381c0.208-0.512,0.79-0.758,1.303-0.549    c0.512,0.208,0.757,0.792,0.549,1.303c-1.253,3.081-2.122,6.408-2.581,9.889c-0.022,0.171-0.042,0.363-0.063,0.571    C27.894,46.792,27.409,51.511,21.688,51.511z"/>
        </g>
        <g>
            <path d="M27.334,56.012c-0.33,0-0.653-0.163-0.844-0.462c-0.297-0.466-0.161-1.084,0.305-1.381    c3.473-2.217,4.508-8.192,4.849-10.156l0.019-0.11c2.04-11.711,9.58-19.891,18.337-19.891c8.758,0,16.299,8.18,18.337,19.892    c0.149,0.859,0.724,2.212,1.854,3.199c0.416,0.363,0.458,0.995,0.095,1.411c-0.364,0.416-0.997,0.457-1.411,0.095    c-1.521-1.33-2.293-3.125-2.508-4.363C64.498,33.51,57.768,26.012,50,26.012c-7.767,0-14.498,7.498-16.367,18.233l-0.019,0.109    c-0.377,2.179-1.526,8.809-5.743,11.5C27.704,55.961,27.518,56.012,27.334,56.012z"/>
        </g>
        <g>
            <path d="M62.484,50.119c-0.416,0-0.805-0.262-0.946-0.678c-0.342-1.002-0.413-2.032-0.481-3.027    c-0.052-0.75-0.1-1.459-0.262-2.088c-0.257-0.994-0.581-1.956-0.965-2.858c-0.217-0.508,0.021-1.096,0.528-1.312    c0.507-0.215,1.096,0.02,1.312,0.529c0.423,0.993,0.78,2.051,1.062,3.143c0.208,0.808,0.266,1.642,0.321,2.449    c0.062,0.907,0.121,1.764,0.378,2.52c0.179,0.523-0.102,1.091-0.624,1.269C62.7,50.101,62.591,50.119,62.484,50.119z"/>
        </g>
        <g>
            <path d="M33.749,58.137c-0.207,0-0.415-0.063-0.594-0.196c-0.444-0.328-0.538-0.954-0.209-1.398    c2.395-3.237,3.441-8.436,4.003-11.228c0.128-0.636,0.232-1.148,0.32-1.49C39.166,36.46,44.282,31.512,50,31.512    c2.646,0,5.203,1.039,7.397,3.005c0.412,0.368,0.446,1,0.078,1.412c-0.37,0.411-1.003,0.446-1.412,0.077    c-1.822-1.632-3.919-2.495-6.063-2.495c-4.791,0-9.129,4.345-10.794,10.812c-0.082,0.318-0.177,0.794-0.296,1.385    c-0.593,2.945-1.696,8.427-4.356,12.022C34.358,57.996,34.056,58.137,33.749,58.137z"/>
        </g>
        <g>
            <path d="M32.505,66.032c-3.458,0-7.142-1.233-10.634-4.25c-0.418-0.361-0.464-0.992-0.103-1.41s0.993-0.464,1.411-0.104    c8.082,6.981,16.133,2.647,19.262-0.619c3.676-3.837,4.667-9.095,4.774-9.723c0.035-1.922,1.246-3.415,2.785-3.415    c1.563,0,2.786,1.538,2.786,3.5c0,0.091-0.013,0.182-0.037,0.27c-0.019,0.065-1.842,6.613-3.241,14.407    c-0.098,0.543-0.616,0.904-1.161,0.808c-0.543-0.098-0.905-0.617-0.808-1.161c1.301-7.246,2.965-13.432,3.244-14.447    c-0.041-0.832-0.485-1.375-0.783-1.375c-0.32,0-0.786,0.584-0.786,1.5c0,0.049-0.003,0.098-0.011,0.147    c-0.039,0.257-0.986,6.353-5.318,10.873C41.071,63.97,36.977,66.032,32.505,66.032z"/>
        </g>
        <g>
            <path d="M49.036,90.988c-0.308,0-0.612-0.142-0.808-0.409c-2.485-3.391-2.992-10.503-1.508-21.138    c0.076-0.548,0.583-0.931,1.128-0.852c0.547,0.076,0.929,0.581,0.852,1.129c-1.39,9.958-0.995,16.764,1.141,19.679    c0.327,0.445,0.23,1.071-0.216,1.397C49.448,90.926,49.241,90.988,49.036,90.988z"/>
        </g>
        <g>
            <path d="M56.913,52.512"/>
        </g>
        <g>
            <path d="M53.501,89.977c-0.326,0-0.646-0.159-0.839-0.453c-4.482-6.87,0.117-34.529,3.635-40.049    c0.838-1.315,0.837-2.759-0.004-4.29c-1.369-2.496-4.359-4.173-6.293-4.173c-3.386,0-6.14,4.038-6.14,9    c0,6.458-5.257,11.71-11.72,11.71c-5.107,0-9.588-3.265-11.15-8.125c-0.169-0.525,0.121-1.089,0.646-1.258    c0.529-0.167,1.089,0.12,1.258,0.646c1.295,4.029,5.011,6.736,9.246,6.736c5.359,0,9.72-4.356,9.72-9.71c0-6.065,3.652-11,8.14-11    c2.86,0,6.47,2.337,8.047,5.21c1.184,2.157,1.161,4.404-0.063,6.326c-3.581,5.618-7.351,32.204-3.646,37.881    c0.302,0.463,0.171,1.083-0.291,1.385C53.878,89.924,53.688,89.977,53.501,89.977z"/>
        </g>
        <g>
            <path d="M78.507,48.345c-0.53,0-0.973-0.417-0.998-0.953c-0.487-10.374-3.822-19.875-9.39-26.755    c-0.348-0.429-0.281-1.059,0.148-1.406c0.429-0.349,1.06-0.28,1.406,0.148c5.834,7.208,9.325,17.124,9.833,27.919    c0.025,0.552-0.4,1.02-0.952,1.046C78.539,48.345,78.522,48.345,78.507,48.345z"/>
        </g>
        <g>
            <path d="M64.912,16.886c-0.231,0-0.463-0.079-0.651-0.241C59.968,12.96,55.036,11.012,50,11.012s-9.966,1.947-14.258,5.629    c-0.419,0.36-1.05,0.312-1.41-0.107s-0.312-1.051,0.107-1.41c4.66-3.999,10.04-6.112,15.561-6.112s10.902,2.114,15.563,6.115    c0.419,0.36,0.467,0.991,0.107,1.41C65.474,16.768,65.193,16.886,64.912,16.886z"/>
        </g>
        <g>
            <path d="M21.494,48.345c-0.016,0-0.032,0-0.048-0.001c-0.552-0.026-0.978-0.494-0.952-1.046    c0.507-10.795,3.999-20.71,9.832-27.917c0.348-0.429,0.977-0.497,1.406-0.148c0.43,0.348,0.496,0.977,0.148,1.406    c-5.567,6.879-8.901,16.38-9.388,26.753C22.467,47.928,22.024,48.345,21.494,48.345z"/>
        </g>
        <g>
            <path d="M43.516,89.977c-0.307,0-0.608-0.14-0.805-0.405c-1.943-2.625-1.125-8.524-0.334-14.229    c0.403-2.908,0.955-6.893,0.472-7.598c-0.444-0.347-1.516,0.049-3.223,0.727c-1.445,0.573-3.243,1.287-5.472,1.705    c-4.447,0.839-8.031-0.403-10.256-1.589c-0.487-0.26-0.672-0.866-0.412-1.354c0.259-0.486,0.864-0.67,1.353-0.412    c1.944,1.036,5.076,2.118,8.946,1.39c2.04-0.383,3.739-1.058,5.104-1.6c2.143-0.851,3.835-1.521,5.251-0.389    c1.311,1.049,0.996,3.79,0.219,9.395c-0.632,4.556-1.497,10.796-0.04,12.765c0.329,0.443,0.235,1.07-0.209,1.398    C43.931,89.913,43.723,89.977,43.516,89.977z"/>
        </g>
        <g>
            <path d="M38.423,87.591c-0.415,0-0.803-0.26-0.946-0.675c-1.068-3.104-0.162-7.451,0.5-10.625c0.202-0.971,0.44-2.113,0.514-2.824    c-2.853,0.696-10.057,0.688-12.245,0.203c-0.539-0.12-0.879-0.654-0.759-1.193c0.119-0.539,0.652-0.875,1.193-0.76    c2.229,0.494,10.057,0.391,11.683-0.296c0.803-0.337,1.331-0.053,1.574,0.148c0.91,0.749,0.605,2.213-0.003,5.13    c-0.614,2.946-1.455,6.981-0.565,9.566c0.18,0.522-0.098,1.091-0.621,1.271C38.641,87.573,38.531,87.591,38.423,87.591z"/>
        </g>
        <g>
            <path d="M33.16,83.328c-0.257,0-0.515-0.099-0.71-0.296c-0.389-0.392-0.386-1.025,0.006-1.414    c1.609-1.596,2.198-3.636,1.795-4.179c-0.345-0.469-2.211-0.318-4.462,0.988c-0.479,0.277-1.09,0.113-1.367-0.363    c-0.277-0.478-0.115-1.09,0.363-1.367c2.388-1.386,5.672-2.333,7.073-0.45c1.287,1.737-0.003,4.816-1.994,6.791    C33.669,83.231,33.415,83.328,33.16,83.328z"/>
        </g>
        <g>
            <path d="M57.406,89.65c-0.486,0-0.912-0.354-0.987-0.85c-0.919-6.021-2.53-21.262,2.327-32.682    c1.279-3.009,3.245-5.018,5.844-5.972c3.692-1.354,8.51-0.562,14.329,2.356c0.494,0.247,0.693,0.848,0.445,1.342    c-0.247,0.493-0.85,0.693-1.342,0.445c-3.648-1.828-8.818-3.705-12.743-2.266c-2.06,0.757-3.639,2.397-4.693,4.878    c-4.656,10.948-3.083,25.744-2.19,31.598c0.084,0.546-0.292,1.056-0.838,1.139C57.507,89.646,57.456,89.65,57.406,89.65z"/>
        </g>
        <g>
            <path d="M61.474,87.65c-0.476,0-0.897-0.341-0.983-0.825c-0.681-3.843-2.578-17.143,1.595-26.955    c1.027-2.416,2.615-4.025,4.718-4.783c3.01-1.084,6.927-0.395,11.647,2.046c0.491,0.254,0.683,0.857,0.43,1.348    c-0.254,0.49-0.858,0.68-1.348,0.43c-2.894-1.495-6.989-3.046-10.051-1.942c-1.581,0.569-2.744,1.775-3.557,3.686    c-3.956,9.305-2.122,22.117-1.466,25.822c0.097,0.544-0.267,1.063-0.81,1.159C61.59,87.646,61.531,87.65,61.474,87.65z"/>
        </g>
        <g>
            <path d="M65.038,69.498c-0.052,0-0.105-0.004-0.158-0.013c-0.546-0.087-0.917-0.6-0.83-1.145c0.297-1.86,0.76-3.537,1.376-4.983    c0.754-1.772,1.928-2.951,3.49-3.5c2.238-0.789,5.138-0.24,8.615,1.622c0.486,0.262,0.67,0.867,0.409,1.354    c-0.262,0.486-0.867,0.669-1.354,0.409c-2.036-1.092-4.909-2.236-7.006-1.5c-1.024,0.361-1.781,1.145-2.314,2.397    c-0.553,1.297-0.97,2.815-1.241,4.515C65.946,69.147,65.521,69.498,65.038,69.498z"/>
        </g>
        <g>
            <path d="M65.586,84.539c-0.461,0-0.876-0.321-0.977-0.79c-0.044-0.206-1.081-5.107-0.961-10.757c0.012-0.545,0.457-0.979,1-0.979    c0.007,0,0.014,0,0.021,0c0.552,0.012,0.99,0.469,0.979,1.021c-0.115,5.418,0.906,10.246,0.916,10.294    c0.116,0.54-0.228,1.072-0.768,1.188C65.726,84.532,65.655,84.539,65.586,84.539z"/>
        </g>
        <g>
            <path d="M69.226,80.598c-0.475,0-0.896-0.338-0.982-0.821c-0.065-0.358-1.575-8.83,0.222-13.5c0.592-1.536,1.585-2.12,2.314-2.339    c1.919-0.574,4.16,0.626,5.709,1.733c0.449,0.321,0.553,0.946,0.231,1.396s-0.944,0.553-1.396,0.231    c-1.625-1.162-3.104-1.704-3.97-1.444c-0.163,0.049-0.66,0.197-1.022,1.142c-1.596,4.146-0.137,12.342-0.121,12.424    c0.098,0.543-0.263,1.063-0.806,1.162C69.345,80.593,69.284,80.598,69.226,80.598z"/>
        </g>
        <g>
            <path d="M72.469,75.956c-0.387,0-0.756-0.227-0.919-0.604c-0.937-2.176-0.852-5.188,0.181-6.445    c0.417-0.507,0.988-0.729,1.565-0.601c0.787,0.169,1.625,0.478,2.411,1.59c0.319,0.45,0.212,1.074-0.239,1.394    c-0.45,0.319-1.074,0.212-1.394-0.239c-0.32-0.452-0.581-0.616-0.899-0.714c-0.306,0.637-0.51,2.547,0.213,4.225    c0.218,0.508-0.017,1.096-0.523,1.314C72.735,75.93,72.602,75.956,72.469,75.956z"/>
        </g>
    </g>
</svg>